<?xml version="1.0"?>
<svg xmlns="http://www.w3.org/2000/svg" viewBox="0 0 50 50" enable-background="new 0 0 50 50">
    <path style="text-indent:0;text-align:start;line-height:normal;text-transform:none;block-progression:tb;-inkscape-font-specification:Bitstream Vera Sans" d="M 18 0 C 13.570085 0 10 3.5700855 10 8 C 10 12.429915 13.570085 16 18 16 C 20.964775 16 23.524186 14.385713 24.90625 12 L 37 12 A 1.0001 1.0001 0 0 0 37.71875 11.71875 L 39.71875 9.71875 A 1.0001 1.0001 0 0 0 40 9 L 40 7 A 1.0001 1.0001 0 0 0 39.71875 6.28125 L 37.71875 4.28125 A 1.0001 1.0001 0 0 0 37 4 L 35 4 A 1.0001 1.0001 0 0 0 34.28125 4.28125 L 33.5 5.0625 L 32.71875 4.28125 A 1.0001 1.0001 0 0 0 32 4 L 30 4 A 1.0001 1.0001 0 0 0 29.4375 4.15625 L 28.5 4.78125 L 27.5625 4.15625 A 1.0001 1.0001 0 0 0 27 4 L 24.90625 4 C 23.524186 1.6142869 20.964775 0 18 0 z M 18 2 C 21.370085 2 24 4.6299145 24 8 C 24 11.370085 21.370085 14 18 14 C 14.629915 14 12 11.370085 12 8 C 12 4.6299145 14.629915 2 18 2 z M 16 6 C 14.895431 6 14 6.8954305 14 8 C 14 9.1045695 14.895431 10 16 10 C 17.104569 10 18 9.1045695 18 8 C 18 6.8954305 17.104569 6 16 6 z M 25.75 6 L 26.6875 6 L 27.9375 6.84375 A 1.0001 1.0001 0 0 0 29.0625 6.84375 L 30.3125 6 L 31.5625 6 L 32.78125 7.21875 A 1.0001 1.0001 0 0 0 34.21875 7.21875 L 35.4375 6 L 36.5625 6 L 38 7.4375 L 38 8.5625 L 36.5625 10 L 25.75 10 C 25.913982 9.3601485 26 8.6921742 26 8 C 26 7.3078259 25.913982 6.6398515 25.75 6 z M 15.6875 18 C 13.685941 18 11.860894 19.226365 11.09375 21.09375 C 11.08795 21.10785 11.06817 21.11083 11.0625 21.125 L 8.125 28 L 7 28 C 5.3545455 28 4 29.354545 4 31 C 4 32.645455 5.3545455 34 7 34 L 7 44 L 7 45 L 7 46 L 7 47 C 7 48.645455 8.3545455 50 10 50 L 13 50 C 14.645455 50 16 48.645455 16 47 L 16 46 L 34 46 L 34 47 C 34 48.645455 35.354545 50 37 50 L 40 50 C 41.645455 50 43 48.645455 43 47 L 43 45 L 43 44 L 43 34 C 44.645455 34 46 32.645455 46 31 C 46 29.354545 44.645455 28 43 28 L 41.875 28 L 38.9375 21.125 C 38.9318 21.11083 38.91204 21.10785 38.90625 21.09375 C 38.139106 19.226365 36.314059 18 34.3125 18 L 15.6875 18 z M 15.6875 20 L 34.3125 20 C 35.495833 20 36.619025 20.766312 37.0625 21.875 L 37.09375 21.90625 L 39.90625 28.5 L 38.9375 29.15625 L 38.9375 29.1875 C 38.109777 29.766906 37.220833 30 36.1875 30 L 13.8125 30 C 12.779167 30 11.890223 29.766906 11.0625 29.1875 L 11.0625 29.15625 L 10.09375 28.5 L 12.90625 21.90625 L 12.9375 21.875 C 13.380975 20.766312 14.504167 20 15.6875 20 z M 7 30 L 8.6875 30 L 9.9375 30.84375 L 9.9375 30.8125 L 9.96875 30.8125 C 11.135219 31.621255 12.455162 32 13.8125 32 L 36.1875 32 C 37.544838 32 38.864781 31.621255 40.03125 30.8125 C 40.03925 30.8069 40.0545 30.8181 40.0625 30.8125 L 40.0625 30.84375 L 41.3125 30 L 43 30 C 43.554545 30 44 30.445455 44 31 C 44 31.554545 43.554545 32 43 32 L 42 32 L 41 32 L 41 33 L 41 44 L 15 44 L 9 44 L 9 33 L 9 32 L 8 32 L 7 32 C 6.4454545 32 6 31.554545 6 31 C 6 30.445455 6.4454545 30 7 30 z M 14.5 35 C 12.57619 35 11 36.57619 11 38.5 C 11 40.42381 12.57619 42 14.5 42 C 16.42381 42 18 40.42381 18 38.5 C 18 36.57619 16.42381 35 14.5 35 z M 35.5 35 C 33.57619 35 32 36.57619 32 38.5 C 32 40.42381 33.57619 42 35.5 42 C 37.42381 42 39 40.42381 39 38.5 C 39 36.57619 37.42381 35 35.5 35 z M 14.5 37 C 15.37619 37 16 37.62381 16 38.5 C 16 39.37619 15.37619 40 14.5 40 C 13.62381 40 13 39.37619 13 38.5 C 13 37.62381 13.62381 37 14.5 37 z M 35.5 37 C 36.37619 37 37 37.62381 37 38.5 C 37 39.37619 36.37619 40 35.5 40 C 34.62381 40 34 39.37619 34 38.5 C 34 37.62381 34.62381 37 35.5 37 z M 9 46 L 14 46 L 14 47 C 14 47.554545 13.554545 48 13 48 L 10 48 C 9.4454545 48 9 47.554545 9 47 L 9 46 z M 36 46 L 41 46 L 41 47 C 41 47.554545 40.554545 48 40 48 L 37 48 C 36.445455 48 36 47.554545 36 47 L 36 46 z" overflow="visible" enable-background="accumulate" font-family="Bitstream Vera Sans"/>
</svg>
